<svg width="1024" height="1024" viewBox="0 0 1024 1024" fill="none" xmlns="http://www.w3.org/2000/svg" class="jss1506"><rect width="1024" height="1024" rx="240" fill="#EB0000"></rect><path d="M620.01 810.414C548.28 810.414 476.551 810.414 405.435 810.414C407.274 820.836 409.113 831.871 410.952 842.293C426.279 842.293 439.154 853.329 441.606 868.042C450.189 920.154 459.385 971.652 467.968 1023.76C498.008 1023.76 528.049 1023.76 557.476 1023.76C566.059 971.652 575.256 920.154 583.839 868.042C586.291 853.329 599.165 842.293 614.492 842.293C616.331 831.871 618.171 820.836 620.01 810.414C618.171 820.836 616.331 831.871 614.492 842.293Z" fill="white"></path><path d="M789.83 628.333C604.682 628.333 420.148 628.333 235 628.333C235 636.303 235 644.273 235 652.243C344.74 677.992 379.072 718.455 394.399 762.596C472.872 762.596 551.958 762.596 630.431 762.596C645.145 718.455 680.09 677.992 789.83 652.243C789.83 644.273 789.83 636.303 789.83 628.333Z" fill="white"></path><path d="M610.2 250.68C640.241 298.499 659.246 345.093 652.502 388.008C640.241 471.999 534.179 529.014 512.722 581.126C435.475 502.039 388.268 448.089 380.911 398.43C369.263 305.243 502.912 229.835 512.722 125C536.631 155.041 543.988 208.378 543.988 238.418C555.637 223.092 562.38 204.086 562.994 184.468C585.677 211.443 593.034 258.037 593.034 292.982C602.843 281.333 609.587 266.62 610.2 250.68Z" fill="white"></path></svg>