<?xml version="1.0" standalone="no"?>
<!DOCTYPE svg PUBLIC "-//W3C//DTD SVG 20010904//EN"
 "http://www.w3.org/TR/2001/REC-SVG-20010904/DTD/svg10.dtd">
<svg version="1.0" xmlns="http://www.w3.org/2000/svg"
 width="920.000000pt" height="920.000000pt" viewBox="0 0 920.000000 920.000000"
 preserveAspectRatio="xMidYMid meet">

<g transform="translate(0.000000,920.000000) scale(0.100000,-0.100000)"
fill="#000000" stroke="none">
<path d="M4395 7210 c-625 -48 -1204 -285 -1675 -685 -132 -112 -328 -320
-432 -459 -92 -123 -220 -326 -273 -436 l-27 -55 -101 -1 c-119 -1 -197 -19
-312 -73 -156 -74 -280 -197 -362 -360 -78 -154 -78 -157 -78 -831 0 -668 -1
-655 75 -816 78 -162 211 -294 372 -369 111 -51 187 -68 305 -69 l101 -1 34
-69 c85 -178 141 -230 248 -230 66 0 123 27 169 80 40 45 51 73 51 132 0 39
-14 75 -83 212 -118 235 -187 431 -232 662 -123 639 8 1299 365 1835 104 157
169 236 303 371 402 407 894 650 1465 723 123 16 481 16 592 0 579 -83 1059
-320 1451 -714 464 -468 719 -1085 719 -1742 0 -461 -118 -875 -381 -1330
-136 -236 -334 -428 -524 -508 -147 -62 -152 -62 -605 -59 l-415 3 -55 54
c-31 30 -81 66 -115 82 l-60 28 -315 0 c-306 0 -317 -1 -372 -23 -217 -88
-314 -384 -169 -515 72 -65 26 -62 1031 -62 839 0 922 1 1003 18 258 52 470
170 673 372 143 142 237 277 350 498 l91 179 104 3 c119 2 200 21 309 71 237
110 402 335 440 602 8 52 10 258 8 637 -4 625 -3 610 -77 770 -75 159 -203
288 -366 366 -112 54 -192 73 -311 73 l-101 1 -54 104 c-65 125 -179 301 -279
431 -97 126 -379 406 -508 504 -421 320 -890 512 -1414 580 -145 19 -422 27
-563 16z"/>
<path d="M3441 5824 c-119 -32 -223 -113 -350 -273 -348 -437 -511 -971 -461
-1505 30 -315 119 -573 240 -697 116 -119 205 -118 835 11 444 90 768 128 973
115 48 -3 123 -8 167 -11 130 -8 344 -42 605 -96 419 -85 514 -100 650 -101
155 -2 184 7 249 79 125 137 214 453 228 815 20 501 -141 979 -468 1390 -175
220 -296 289 -510 289 -115 0 -203 -14 -453 -75 -473 -115 -618 -115 -1091 0
-104 26 -226 53 -270 61 -101 18 -274 17 -344 -2z m264 -935 c159 -59 263
-249 225 -410 -59 -253 -344 -369 -556 -227 -101 68 -158 179 -157 303 1 155
103 296 246 341 66 20 177 17 242 -7z m2077 -12 c201 -99 265 -363 130 -542
-163 -217 -493 -183 -615 64 -29 59 -32 75 -32 151 1 114 33 188 116 265 82
75 139 96 255 92 74 -2 100 -8 146 -30z"/>
</g>
</svg>
