<?xml version="1.0" encoding="UTF-8"?>
<svg id="Layer_1" data-name="Layer 1" xmlns="http://www.w3.org/2000/svg" xmlns:xlink="http://www.w3.org/1999/xlink" viewBox="0 0 1200 238.72">
  <defs>
    <style>
      .cls-1 {
        fill: #2c2a4a;
      }

      .cls-1, .cls-2, .cls-3, .cls-4, .cls-5, .cls-6 {
        stroke-width: 0px;
      }

      .cls-2 {
        fill: url(#linear-gradient);
      }

      .cls-3 {
        fill: #fff;
      }

      .cls-4 {
        fill: url(#linear-gradient-2);
      }

      .cls-5 {
        fill: url(#linear-gradient-3);
      }

      .cls-6 {
        fill: url(#linear-gradient-4);
      }
    </style>
    <linearGradient id="linear-gradient" x1="-437.56" y1="18097.92" x2="-302.23" y2="17901.3" gradientTransform="translate(14339.26 11147.98) rotate(126.59)" gradientUnits="userSpaceOnUse">
      <stop offset="0" stop-color="#94f0f5"/>
      <stop offset="1" stop-color="#9454ff"/>
    </linearGradient>
    <linearGradient id="linear-gradient-2" x1="-470.08" y1="18063.67" x2="-305.28" y2="17891" gradientTransform="translate(14339.26 11147.98) rotate(126.59)" gradientUnits="userSpaceOnUse">
      <stop offset="0" stop-color="#94f0f5"/>
      <stop offset="1" stop-color="#941eff"/>
    </linearGradient>
    <linearGradient id="linear-gradient-3" x1="96.37" y1="-14.56" x2="140.15" y2="240.48" gradientUnits="userSpaceOnUse">
      <stop offset=".15" stop-color="#94f0f5"/>
      <stop offset=".87" stop-color="#947eff" stop-opacity="0"/>
    </linearGradient>
    <linearGradient id="linear-gradient-4" x1="76.03" y1="226.97" x2="172.4" y2="226.97" gradientUnits="userSpaceOnUse">
      <stop offset=".07" stop-color="#9454ff"/>
      <stop offset="1" stop-color="#94f0f5"/>
    </linearGradient>
  </defs>
  <g id="Logo-color">
    <g>
      <g>
        <path class="cls-2" d="M48.25,215.19c-.41-.31-.82-.61-1.24-.93C-4.44,175.03-15.25,101.88,22.66,49.45h.01c.3-.43.6-.84.9-1.25s.61-.82.92-1.22h.01C63.72-4.48,136.87-15.28,189.3,22.62c-26.38-18.57-62.9-12.8-82.25,13.24h0c-19.57,26.36-14.17,63.56,12.03,83.27l.31.23-.22.3c.08-.1.15-.19.23-.3l.3.22c26.2,19.7,31.6,56.9,12.03,83.25h0c-19.35,26.05-55.85,31.81-82.23,13.26l-.03-.02c-.41-.29-.81-.59-1.22-.89Z"/>
        <path class="cls-4" d="M49.5,216.1c26.38,18.56,62.89,12.79,82.23-13.25h0c19.57-26.36,14.17-63.56-12.03-83.26-.1-.08-.19-.15-.3-.23.08-.1.15-.21.22-.31l-.23.31c-.1-.08-.21-.15-.31-.22-26.2-19.71-31.6-56.91-12.03-83.26h0c19.35-26.05,55.86-31.82,82.25-13.25.42.3.84.61,1.25.92s.81.6,1.21.91l.03.02c51.85,39.53,62.43,113.53,23.44,166.04-38.99,52.52-112.89,63.8-165.73,25.6Z"/>
      </g>
      <circle class="cls-5" cx="119.36" cy="119.36" r="119.36"/>
      <path class="cls-6" d="M189.15,216.13c-5.93,4.28-12.11,7.95-18.49,11-1.12.54-2.23,1.05-3.37,1.54-.49.21-1,.43-1.49.64-13.69,5.77-28.34,8.94-43.11,9.36-.36.02-.72.03-1.07.03-.67.02-1.34.03-2.01.03h-.47c-.67,0-1.34,0-2.01-.03-.37,0-.72-.02-1.07-.03-15.33-.43-30.51-3.81-44.63-10.01-1.13-.49-2.24-1.01-3.35-1.54-6.37-3.05-12.57-6.71-18.49-11,21.47,15.1,49.65,14.07,69.8-.9,20.15,14.97,48.33,16,69.79.9Z"/>
      <g>
        <path class="cls-3" d="M211.57,96.82c-1.95,3.01-4.23,5.78-6.79,8.25-1.23,1.21-2.53,2.34-3.89,3.41-8.16,6.39-18.45,10.21-29.62,10.21-7.39,0-14.4-1.67-20.66-4.66-2.84-1.35-5.51-2.97-8.01-4.83-.42-.31-.83-.62-1.23-.95-.51-.4-1.01-.81-1.5-1.24-1.81-1.57-3.51-3.27-5.08-5.1-1.26-1.47-2.43-3.01-3.49-4.62-.28-.41-.56-.84-.82-1.26h0c-.6-.97-1.16-1.95-1.69-2.96-3.55-6.7-5.56-14.34-5.56-22.45,0-4.25.55-8.36,1.59-12.29,2.43-9.24,7.56-17.4,14.48-23.58-2.98-.76-6.1-1.17-9.32-1.17-9.01,0-17.28,3.19-23.73,8.5,2.61,3.54,4.76,7.45,6.33,11.64,1.97,5.25,3.05,10.94,3.05,16.89,0,4.82-.71,9.48-2.03,13.88-3.16-1.58-6.45-2.95-9.85-4.08.79-3.02,1.2-6.19,1.2-9.46,0-5.81-1.32-11.31-3.69-16.22-2.19.67-4.26,1.61-6.18,2.79-6.7,4.08-11.51,10.94-12.82,18.99-.24-1.93-.36-3.9-.36-5.9,0-10.69,3.49-20.56,9.39-28.54,2.18-2.96,4.69-5.64,7.48-8.01,8.4-7.18,19.29-11.51,31.2-11.51,7.39,0,14.4,1.67,20.65,4.66,4.14,1.97,7.94,4.52,11.32,7.54-4.08,1.05-7.89,2.77-11.31,5.05-9.55,6.34-16.03,16.96-16.67,29.13-.04.67-.06,1.34-.06,2.02,0,4.82.91,9.42,2.57,13.64h0c.5,1.28,1.07,2.52,1.7,3.72,1.73,3.29,3.93,6.29,6.52,8.9,1.8,1.83,3.79,3.47,5.94,4.89,1.27.85,2.6,1.62,3.97,2.31,2.14,1.08,4.41,1.95,6.76,2.59,3.16.87,6.48,1.33,9.92,1.33,6.33,0,12.29-1.57,17.51-4.35.36-.19.71-.38,1.07-.59,1.96-1.13,3.81-2.43,5.53-3.88-7.07-3.41-14.86-5.56-23.07-6.19-1.64-.13-3.3-.19-4.97-.19-2.59,0-5.13.15-7.64.45-1.44.16-2.87.38-4.28.64-2.86-2.7-5.31-5.84-7.2-9.33,5.54-1.44,11.34-2.28,17.3-2.42.61-.02,1.21-.03,1.82-.03,3.07,0,6.09.18,9.06.55,9.4,1.12,18.27,3.97,26.27,8.23,1.53.8,3.02,1.67,4.49,2.59,1.51.93,2.98,1.92,4.42,2.97Z"/>
        <path class="cls-3" d="M146.8,157.93c0,19.56-7.45,37.38-19.67,50.78-.66.74-1.33,1.45-2.03,2.15-1.82,1.85-3.74,3.61-5.75,5.28h0c-2.65-2.19-5.14-4.55-7.46-7.07-.11-.11-.22-.23-.33-.35-12.22-13.4-19.66-31.23-19.66-50.79,0-16.29,5.17-31.39,13.95-43.73.34-.47.69-.95,1.03-1.41,1.15-1.54,2.36-3.02,3.62-4.47.34-.4.7-.79,1.05-1.19-2.39-1.9-4.91-3.62-7.56-5.16-3.14-1.84-6.43-3.41-9.88-4.7-1.72-.65-3.47-1.22-5.25-1.72-1.07-.31-2.15-.58-3.25-.82-4.59-1.03-9.36-1.58-14.27-1.58-10.01,0-19.49,2.27-27.95,6.33,1.14.97,2.35,1.88,3.61,2.7,5.9,3.9,12.96,6.16,20.55,6.16,6.84,0,13.27-1.85,18.79-5.06,3.84,1.34,7.53,3.04,11,5.05-8.18,6.48-18.53,10.35-29.79,10.35-12.21,0-23.36-4.55-31.83-12.06-.59-.51-1.17-1.05-1.73-1.61-2.32-2.26-4.42-4.77-6.25-7.47-.18-.26-.36-.53-.53-.8,1.88-1.37,3.83-2.65,5.84-3.83,1.01-.6,2.02-1.17,3.07-1.72,10.52-5.57,22.51-8.72,35.23-8.72,3.61,0,7.16.26,10.64.75.55.07,1.1.15,1.65.25,4.25.69,8.38,1.74,12.36,3.13,1.57.54,3.12,1.13,4.64,1.77,3.25,1.38,6.38,2.96,9.38,4.77,3.28,1.96,6.39,4.15,9.32,6.57h0c1.65,1.37,3.24,2.79,4.76,4.3,1.04,1.01,2.06,2.05,3.02,3.14-.41.32-.81.65-1.21.98-2.33,1.95-4.53,4.05-6.57,6.3-.75.83-1.48,1.67-2.18,2.54-1.26,1.52-2.43,3.11-3.54,4.74-6.99,10.34-11.06,22.8-11.06,36.23s4.29,26.52,11.6,37c1.38,1.99,2.88,3.9,4.49,5.72.22.26.45.52.69.78,10.41-11.5,16.77-26.76,16.77-43.5,0-13.2-3.95-25.48-10.73-35.71,1.16-1.22,2.37-2.41,3.61-3.55,1.42-1.28,2.89-2.5,4.41-3.64.76,1.09,1.49,2.2,2.18,3.32,7.11,11.51,11.21,25.06,11.21,39.57Z"/>
      </g>
    </g>
    <g>
      <path class="cls-1" d="M342.21,54.19v133.97h-17.42V54.19h17.42Z"/>
      <path class="cls-1" d="M465.08,125.77v62.39h-16.65v-59.71c0-14.74-7.08-22.77-18.76-22.77-13.01,0-22.39,11.67-22.39,30.81v51.67h-16.46v-96.46h14.74l.96,13.21c5.36-10.14,14.35-15.31,27.18-15.31,20.1,0,31.39,14.16,31.39,36.17Z"/>
      <path class="cls-1" d="M528.23,48.45v56.46c6.7-10.14,17.42-15.31,32.15-15.31,13.4,0,24.31,4.78,32.53,14.35,8.42,9.57,12.63,21.63,12.63,35.98s-4.21,26.6-12.44,36.17c-8.23,9.38-19.14,14.16-32.53,14.16-14.55,0-25.65-5.36-33.11-16.27l-.96,14.16h-14.74V48.45h16.46ZM536.85,114.86c-5.93,6.32-8.8,14.74-8.8,25.07v.96c0,10.14,2.87,18.18,8.8,24.5s13.01,9.38,21.24,9.38c18.37,0,30.43-14.16,30.43-34.83,0-10.14-2.87-18.56-8.61-24.88-5.74-6.51-13.01-9.76-22.01-9.76-8.04,0-15.12,3.25-21.05,9.57Z"/>
      <path class="cls-1" d="M724.41,103.76c9.19,9.38,13.78,21.43,13.78,36.17s-4.59,26.79-13.78,36.17c-9,9.38-20.67,14.16-35.02,14.16s-26.22-4.78-35.41-14.16c-8.99-9.38-13.59-21.43-13.59-36.17s4.59-26.79,13.59-36.17c9.19-9.38,21.05-14.16,35.41-14.16s26.03,4.78,35.02,14.16ZM666.22,114.86c-5.93,6.51-8.8,14.93-8.8,25.07s2.87,18.37,8.8,25.07c5.93,6.7,13.78,9.95,23.35,9.95s17.03-3.25,22.77-9.95c5.93-6.7,8.8-14.93,8.8-25.07s-2.87-18.56-8.8-25.07c-5.74-6.7-13.4-9.95-22.77-9.95s-17.42,3.25-23.35,9.95Z"/>
      <path class="cls-1" d="M850.72,91.7v96.46h-14.74l-.96-13.21c-4.78,10.14-13.78,15.31-26.6,15.31-20.1,0-31-13.97-31-36.17v-62.39h16.46v59.71c0,15.12,6.7,22.97,18.37,22.97,12.82,0,22.01-10.91,22.01-29.09v-53.59h16.46Z"/>
      <path class="cls-1" d="M973.21,125.77v62.39h-16.65v-59.71c0-14.74-7.08-22.77-18.76-22.77-13.01,0-22.39,11.67-22.39,30.81v51.67h-16.46v-96.46h14.74l.96,13.21c5.36-10.14,14.35-15.31,27.18-15.31,20.1,0,31.39,14.16,31.39,36.17Z"/>
      <path class="cls-1" d="M1105.84,48.45v139.71h-14.74l-.96-14.16c-7.46,10.91-18.56,16.27-33.11,16.27-13.4,0-24.31-4.78-32.53-14.16-8.23-9.57-12.44-21.63-12.44-36.17s4.21-26.41,12.44-35.98c8.42-9.57,19.33-14.35,32.73-14.35,14.74,0,25.45,5.17,32.15,15.31v-56.46h16.46ZM1037.7,115.05c-5.74,6.32-8.61,14.74-8.61,24.88,0,20.67,12.06,34.83,30.43,34.83,8.23,0,15.12-3.06,21.05-9.38,5.93-6.32,9-14.35,9-24.5v-.96c0-10.33-3.06-18.76-9-25.07-5.93-6.32-12.82-9.57-20.86-9.57-8.99,0-16.27,3.25-22.01,9.76Z"/>
      <path class="cls-1" d="M1200,107.21c-7.85,0-14.35,2.3-19.52,7.08-5.74,5.17-8.61,12.82-8.8,22.77v51.1h-16.46v-96.46h14.74l1.15,16.84c3.64-9.95,13.59-17.8,28.9-17.8v16.46Z"/>
    </g>
  </g>
</svg>