<?xml version="1.0" encoding="UTF-8"?>
<svg id="Layer_1" data-name="Layer 1" xmlns="http://www.w3.org/2000/svg" viewBox="0 0 1200 238.72">
  <defs>
    <style>
      .cls-1 {
        fill: #fff;
        stroke-width: 0px;
      }
    </style>
  </defs>
  <g id="Logo-white">
    <path class="cls-1" d="M119.36,0C53.44,0,0,53.44,0,119.36s53.44,119.36,119.36,119.36,119.36-53.44,119.36-119.36S185.28,0,119.36,0ZM127.14,208.72c-.66.73-1.34,1.45-2.04,2.15-1.82,1.85-3.74,3.61-5.75,5.28h-.01c-2.64-2.19-5.14-4.55-7.45-7.07-.11-.11-.23-.23-.34-.35-12.21-13.41-19.66-31.23-19.66-50.8,0-16.29,5.17-31.39,13.96-43.72.34-.47.69-.95,1.03-1.41,1.15-1.54,2.36-3.03,3.62-4.47.34-.4.7-.79,1.05-1.19-2.39-1.89-4.91-3.62-7.56-5.16-3.13-1.83-6.43-3.41-9.87-4.7-1.72-.65-3.47-1.22-5.25-1.71-1.07-.31-2.15-.59-3.25-.82-4.58-1.04-9.36-1.59-14.26-1.59-10.02,0-19.49,2.28-27.95,6.34,1.14.97,2.35,1.88,3.6,2.7,5.9,3.89,12.96,6.16,20.55,6.16,6.85,0,13.27-1.85,18.79-5.06,3.84,1.34,7.53,3.04,11,5.05-8.18,6.47-18.53,10.34-29.79,10.34-12.21,0-23.36-4.55-31.83-12.06-.59-.51-1.17-1.05-1.74-1.61-2.32-2.26-4.41-4.76-6.24-7.46-.18-.27-.36-.53-.53-.81,1.88-1.36,3.83-2.65,5.83-3.82,1.01-.6,2.03-1.18,3.07-1.72,10.52-5.57,22.51-8.73,35.24-8.73,3.6,0,7.15.26,10.63.76.55.07,1.1.15,1.65.24,4.26.7,8.38,1.75,12.36,3.13,1.58.54,3.12,1.13,4.64,1.77,3.25,1.38,6.38,2.96,9.38,4.77,3.28,1.95,6.39,4.15,9.32,6.57h.01c1.65,1.36,3.24,2.79,4.76,4.3,1.04,1,2.06,2.05,3.03,3.13-.41.33-.81.65-1.22.98-2.33,1.95-4.52,4.05-6.57,6.3-.75.83-1.47,1.67-2.18,2.54-1.25,1.52-2.43,3.11-3.53,4.74-6.99,10.34-11.07,22.8-11.07,36.22s4.29,26.52,11.61,37.01c1.38,1.99,2.88,3.9,4.48,5.72.22.26.45.52.69.78,10.42-11.5,16.77-26.76,16.77-43.51,0-13.2-3.94-25.47-10.73-35.71,1.17-1.22,2.37-2.41,3.62-3.54,1.42-1.29,2.89-2.5,4.41-3.64.76,1.08,1.48,2.19,2.17,3.32,7.11,11.51,11.21,25.06,11.21,39.57,0,19.56-7.45,37.38-19.66,50.79ZM200.89,108.48c-8.15,6.39-18.44,10.21-29.62,10.21-7.39,0-14.39-1.67-20.66-4.65-2.83-1.35-5.51-2.98-8-4.83-.42-.31-.83-.62-1.23-.95-.51-.4-1.01-.81-1.5-1.24-1.82-1.57-3.52-3.27-5.09-5.1-1.25-1.47-2.42-3.01-3.49-4.62-.28-.41-.56-.84-.82-1.26h-.01c-.6-.97-1.16-1.95-1.69-2.96-3.56-6.7-5.56-14.35-5.56-22.45,0-4.25.54-8.37,1.58-12.29,2.44-9.24,7.57-17.4,14.49-23.58-2.99-.76-6.1-1.17-9.33-1.17-9,0-17.27,3.19-23.72,8.5,2.61,3.54,4.76,7.45,6.33,11.65,1.97,5.25,3.05,10.94,3.05,16.89,0,4.82-.71,9.48-2.03,13.87-3.16-1.58-6.45-2.95-9.85-4.07.78-3.02,1.2-6.19,1.2-9.46,0-5.81-1.32-11.31-3.69-16.23-2.19.68-4.26,1.62-6.18,2.79-6.7,4.07-11.51,10.94-12.81,18.99-.24-1.93-.36-3.89-.36-5.89,0-10.69,3.49-20.56,9.39-28.54,2.18-2.96,4.69-5.64,7.47-8.01,8.4-7.18,19.29-11.51,31.2-11.51,7.39,0,14.4,1.67,20.65,4.65,4.14,1.98,7.94,4.52,11.33,7.55-4.09,1.05-7.9,2.77-11.32,5.05-9.55,6.34-16.02,16.96-16.67,29.12-.04.67-.06,1.34-.06,2.03,0,4.82.92,9.41,2.58,13.64h0c.49,1.28,1.06,2.52,1.7,3.73,1.72,3.29,3.93,6.29,6.52,8.9,1.8,1.83,3.79,3.47,5.93,4.89,1.28.85,2.6,1.62,3.98,2.3,2.14,1.08,4.4,1.95,6.75,2.59,3.17.87,6.49,1.34,9.92,1.34,6.33,0,12.3-1.58,17.52-4.35.36-.19.71-.39,1.07-.59,1.95-1.13,3.81-2.43,5.52-3.88-7.07-3.41-14.85-5.56-23.06-6.19-1.64-.13-3.3-.19-4.98-.19-2.59,0-5.13.16-7.63.46-1.45.16-2.88.37-4.29.64-2.86-2.7-5.3-5.85-7.2-9.33,5.55-1.45,11.34-2.28,17.3-2.42.61-.02,1.22-.03,1.82-.03,3.07,0,6.09.18,9.06.55,9.4,1.12,18.27,3.97,26.27,8.23,1.53.8,3.03,1.67,4.49,2.59,1.51.93,2.98,1.92,4.41,2.97-1.94,3.01-4.23,5.78-6.79,8.25-1.23,1.22-2.53,2.35-3.89,3.41Z"/>
    <g>
      <path class="cls-1" d="M342.21,54.19v133.97h-17.42V54.19h17.42Z"/>
      <path class="cls-1" d="M465.08,125.77v62.39h-16.65v-59.71c0-14.74-7.08-22.77-18.76-22.77-13.01,0-22.39,11.67-22.39,30.81v51.67h-16.46v-96.46h14.74l.96,13.21c5.36-10.14,14.35-15.31,27.18-15.31,20.1,0,31.39,14.16,31.39,36.17Z"/>
      <path class="cls-1" d="M528.23,48.45v56.46c6.7-10.14,17.42-15.31,32.15-15.31,13.4,0,24.31,4.78,32.53,14.35,8.42,9.57,12.63,21.63,12.63,35.98s-4.21,26.6-12.44,36.17c-8.23,9.38-19.14,14.16-32.53,14.16-14.55,0-25.65-5.36-33.11-16.27l-.96,14.16h-14.74V48.45h16.46ZM536.85,114.86c-5.93,6.32-8.8,14.74-8.8,25.07v.96c0,10.14,2.87,18.18,8.8,24.5s13.01,9.38,21.24,9.38c18.37,0,30.43-14.16,30.43-34.83,0-10.14-2.87-18.56-8.61-24.88-5.74-6.51-13.01-9.76-22.01-9.76-8.04,0-15.12,3.25-21.05,9.57Z"/>
      <path class="cls-1" d="M724.41,103.76c9.19,9.38,13.78,21.43,13.78,36.17s-4.59,26.79-13.78,36.17c-9,9.38-20.67,14.16-35.02,14.16s-26.22-4.78-35.41-14.16c-8.99-9.38-13.59-21.43-13.59-36.17s4.59-26.79,13.59-36.17c9.19-9.38,21.05-14.16,35.41-14.16s26.03,4.78,35.02,14.16ZM666.22,114.86c-5.93,6.51-8.8,14.93-8.8,25.07s2.87,18.37,8.8,25.07c5.93,6.7,13.78,9.95,23.35,9.95s17.03-3.25,22.77-9.95c5.93-6.7,8.8-14.93,8.8-25.07s-2.87-18.56-8.8-25.07c-5.74-6.7-13.4-9.95-22.77-9.95s-17.42,3.25-23.35,9.95Z"/>
      <path class="cls-1" d="M850.72,91.7v96.46h-14.74l-.96-13.21c-4.78,10.14-13.78,15.31-26.6,15.31-20.1,0-31-13.97-31-36.17v-62.39h16.46v59.71c0,15.12,6.7,22.97,18.37,22.97,12.82,0,22.01-10.91,22.01-29.09v-53.59h16.46Z"/>
      <path class="cls-1" d="M973.21,125.77v62.39h-16.65v-59.71c0-14.74-7.08-22.77-18.76-22.77-13.01,0-22.39,11.67-22.39,30.81v51.67h-16.46v-96.46h14.74l.96,13.21c5.36-10.14,14.35-15.31,27.18-15.31,20.1,0,31.39,14.16,31.39,36.17Z"/>
      <path class="cls-1" d="M1105.84,48.45v139.71h-14.74l-.96-14.16c-7.46,10.91-18.56,16.27-33.11,16.27-13.4,0-24.31-4.78-32.53-14.16-8.23-9.57-12.44-21.63-12.44-36.17s4.21-26.41,12.44-35.98c8.42-9.57,19.33-14.35,32.73-14.35,14.74,0,25.45,5.17,32.15,15.31v-56.46h16.46ZM1037.7,115.05c-5.74,6.32-8.61,14.74-8.61,24.88,0,20.67,12.06,34.83,30.43,34.83,8.23,0,15.12-3.06,21.05-9.38s9-14.35,9-24.5v-.96c0-10.33-3.06-18.76-9-25.07-5.93-6.32-12.82-9.57-20.86-9.57-8.99,0-16.27,3.25-22.01,9.76Z"/>
      <path class="cls-1" d="M1200,107.21c-7.85,0-14.35,2.3-19.52,7.08-5.74,5.17-8.61,12.82-8.8,22.77v51.1h-16.46v-96.46h14.74l1.15,16.84c3.64-9.95,13.59-17.8,28.9-17.8v16.46Z"/>
    </g>
  </g>
</svg>