<svg xmlns="http://www.w3.org/2000/svg" width="1088" height="687.962" viewBox="0 0 1088 687.962"><title>Easy to Use</title><g id="Group_12" data-name="Group 12" transform="translate(-57 -56)"><g id="Group_11" data-name="Group 11" transform="translate(57 56)"><path id="Path_83" fill="#3f3d56" d="M1017.81,560.461c-5.27,45.15-16.22,81.4-31.25,110.31-20,38.52-54.21,54.04-84.77,70.28a193.275,193.275,0,0,1-27.46,11.94c-55.61,19.3-117.85,14.18-166.74,3.99a657.282,657.282,0,0,0-104.09-13.16q-14.97-.675-29.97-.67c-15.42.02-293.07,5.29-360.67-131.57-16.69-33.76-28.13-75-32.24-125.27-11.63-142.12,52.29-235.46,134.74-296.47,155.97-115.41,369.76-110.57,523.43,7.88C941.15,276.621,1036.99,396.031,1017.81,560.461Z" data-name="Path 83" transform="translate(-56 -106.019)"/><path id="Path_84" fill="#f2f2f2" d="M986.56,670.771c-20,38.52-47.21,64.04-77.77,80.28a193.272,193.272,0,0,1-27.46,11.94c-55.61,19.3-117.85,14.18-166.74,3.99a657.3,657.3,0,0,0-104.09-13.16q-14.97-.675-29.97-.67-23.13.03-46.25,1.72c-100.17,7.36-253.82-6.43-321.42-143.29L382,283.981,444.95,445.6l20.09,51.59,55.37-75.98L549,381.981l130.2,149.27,36.8-81.27L970.78,657.9l14.21,11.59Z" data-name="Path 84" transform="translate(-56 -106.019)"/><path id="Path_85" d="M302,282.962l26-57,36,83-31-60Z" data-name="Path 85" opacity=".1"/><path id="Path_86" d="M610.5,753.821q-14.97-.675-29.97-.67L465.04,497.191Z" data-name="Path 86" opacity=".1" transform="translate(-56 -106.019)"/><path id="Path_87" d="M464.411,315.191,493,292.962l130,150-132-128Z" data-name="Path 87" opacity=".1"/><path id="Path_88" d="M908.79,751.051a193.265,193.265,0,0,1-27.46,11.94L679.2,531.251Z" data-name="Path 88" opacity=".1" transform="translate(-56 -106.019)"/><circle id="Ellipse_11" cx="3" cy="3" r="3" fill="#f2f2f2" data-name="Ellipse 11" transform="translate(479 98.962)"/><circle id="Ellipse_12" cx="3" cy="3" r="3" fill="#f2f2f2" data-name="Ellipse 12" transform="translate(396 201.962)"/><circle id="Ellipse_13" cx="2" cy="2" r="2" fill="#f2f2f2" data-name="Ellipse 13" transform="translate(600 220.962)"/><circle id="Ellipse_14" cx="2" cy="2" r="2" fill="#f2f2f2" data-name="Ellipse 14" transform="translate(180 265.962)"/><circle id="Ellipse_15" cx="2" cy="2" r="2" fill="#f2f2f2" data-name="Ellipse 15" transform="translate(612 96.962)"/><circle id="Ellipse_16" cx="2" cy="2" r="2" fill="#f2f2f2" data-name="Ellipse 16" transform="translate(736 192.962)"/><circle id="Ellipse_17" cx="2" cy="2" r="2" fill="#f2f2f2" data-name="Ellipse 17" transform="translate(858 344.962)"/><path id="Path_89" fill="#f2f2f2" d="M306,121.222h-2.76v-2.76h-1.48v2.76H299V122.7h2.76v2.759h1.48V122.7H306Z" data-name="Path 89"/><path id="Path_90" fill="#f2f2f2" d="M848,424.222h-2.76v-2.76h-1.48v2.76H841V425.7h2.76v2.759h1.48V425.7H848Z" data-name="Path 90"/><path id="Path_91" fill="#3f3d56" d="M1144,719.981c0,16.569-243.557,74-544,74s-544-57.431-544-74,243.557,14,544,14S1144,703.413,1144,719.981Z" data-name="Path 91" transform="translate(-56 -106.019)"/><path id="Path_92" d="M1144,719.981c0,16.569-243.557,74-544,74s-544-57.431-544-74,243.557,14,544,14S1144,703.413,1144,719.981Z" data-name="Path 92" opacity=".1" transform="translate(-56 -106.019)"/><ellipse id="Ellipse_18" cx="544" cy="30" fill="#3f3d56" data-name="Ellipse 18" rx="544" ry="30" transform="translate(0 583.962)"/><path id="Path_93" fill="#ff6584" d="M624,677.981c0,33.137-14.775,24-33,24s-33,9.137-33-24,33-96,33-96S624,644.844,624,677.981Z" data-name="Path 93" transform="translate(-56 -106.019)"/><path id="Path_94" d="M606,690.66c0,15.062-6.716,10.909-15,10.909s-15,4.153-15-10.909,15-43.636,15-43.636S606,675.6,606,690.66Z" data-name="Path 94" opacity=".1" transform="translate(-56 -106.019)"/><rect id="Rectangle_97" width="92" height="18" fill="#2f2e41" data-name="Rectangle 97" rx="9" transform="translate(489 604.962)"/><rect id="Rectangle_98" width="92" height="18" fill="#2f2e41" data-name="Rectangle 98" rx="9" transform="translate(489 586.962)"/><path id="Path_95" fill="#3f3d56" d="M193,596.547c0,55.343,34.719,100.126,77.626,100.126" data-name="Path 95" transform="translate(-56 -106.019)"/><path id="Path_96" fill="#6c63ff" d="M270.626,696.673c0-55.965,38.745-101.251,86.626-101.251" data-name="Path 96" transform="translate(-56 -106.019)"/><path id="Path_97" fill="#6c63ff" d="M221.125,601.564c0,52.57,22.14,95.109,49.5,95.109" data-name="Path 97" transform="translate(-56 -106.019)"/><path id="Path_98" fill="#3f3d56" d="M270.626,696.673c0-71.511,44.783-129.377,100.126-129.377" data-name="Path 98" transform="translate(-56 -106.019)"/><path id="Path_99" fill="#a8a8a8" d="M254.3,697.379s11.009-.339,14.326-2.7,16.934-5.183,17.757-1.395,16.544,18.844,4.115,18.945-28.879-1.936-32.19-3.953S254.3,697.379,254.3,697.379Z" data-name="Path 99" transform="translate(-56 -106.019)"/><path id="Path_100" d="M290.716,710.909c-12.429.1-28.879-1.936-32.19-3.953-2.522-1.536-3.527-7.048-3.863-9.591l-.368.014s.7,8.879,4.009,10.9,19.761,4.053,32.19,3.953c3.588-.029,4.827-1.305,4.759-3.2C294.755,710.174,293.386,710.887,290.716,710.909Z" data-name="Path 100" opacity=".2" transform="translate(-56 -106.019)"/><path id="Path_101" fill="#3f3d56" d="M777.429,633.081c0,38.029,23.857,68.8,53.341,68.8" data-name="Path 101" transform="translate(-56 -106.019)"/><path id="Path_102" fill="#6c63ff" d="M830.769,701.882c0-38.456,26.623-69.575,59.525-69.575" data-name="Path 102" transform="translate(-56 -106.019)"/><path id="Path_103" fill="#6c63ff" d="M796.755,636.528c0,36.124,15.213,65.354,34.014,65.354" data-name="Path 103" transform="translate(-56 -106.019)"/><path id="Path_104" fill="#3f3d56" d="M830.769,701.882c0-49.139,30.773-88.9,68.8-88.9" data-name="Path 104" transform="translate(-56 -106.019)"/><path id="Path_105" fill="#a8a8a8" d="M819.548,702.367s7.565-.233,9.844-1.856,11.636-3.562,12.2-.958,11.368,12.949,2.828,13.018-19.844-1.33-22.119-2.716S819.548,702.367,819.548,702.367Z" data-name="Path 105" transform="translate(-56 -106.019)"/><path id="Path_106" d="M844.574,711.664c-8.54.069-19.844-1.33-22.119-2.716-1.733-1.056-2.423-4.843-2.654-6.59l-.253.01s.479,6.1,2.755,7.487,13.579,2.785,22.119,2.716c2.465-.02,3.317-.9,3.27-2.2C847.349,711.159,846.409,711.649,844.574,711.664Z" data-name="Path 106" opacity=".2" transform="translate(-56 -106.019)"/><path id="Path_107" fill="#a8a8a8" d="M949.813,724.718s11.36-1.729,14.5-4.591,16.89-7.488,18.217-3.667,19.494,17.447,6.633,19.107-30.153,1.609-33.835-.065S949.813,724.718,949.813,724.718Z" data-name="Path 107" transform="translate(-56 -106.019)"/><path id="Path_108" d="M989.228,734.173c-12.86,1.659-30.153,1.609-33.835-.065-2.8-1.275-4.535-6.858-5.2-9.45l-.379.061s1.833,9.109,5.516,10.783,20.975,1.725,33.835.065c3.712-.479,4.836-1.956,4.529-3.906C993.319,732.907,991.991,733.817,989.228,734.173Z" data-name="Path 108" opacity=".2" transform="translate(-56 -106.019)"/><path id="Path_109" fill="#a8a8a8" d="M670.26,723.9s9.587-1.459,12.237-3.875,14.255-6.32,15.374-3.095,16.452,14.725,5.6,16.125-25.448,1.358-28.555-.055S670.26,723.9,670.26,723.9Z" data-name="Path 109" transform="translate(-56 -106.019)"/><path id="Path_110" d="M703.524,731.875c-10.853,1.4-25.448,1.358-28.555-.055-2.367-1.076-3.827-5.788-4.39-7.976l-.32.051s1.547,7.687,4.655,9.1,17.7,1.456,28.555.055c3.133-.4,4.081-1.651,3.822-3.3C706.977,730.807,705.856,731.575,703.524,731.875Z" data-name="Path 110" opacity=".2" transform="translate(-56 -106.019)"/><path id="Path_111" fill="#a8a8a8" d="M178.389,719.109s7.463-1.136,9.527-3.016,11.1-4.92,11.969-2.409,12.808,11.463,4.358,12.553-19.811,1.057-22.23-.043S178.389,719.109,178.389,719.109Z" data-name="Path 111" transform="translate(-56 -106.019)"/><path id="Path_112" d="M204.285,725.321c-8.449,1.09-19.811,1.057-22.23-.043-1.842-.838-2.979-4.506-3.417-6.209l-.249.04s1.2,5.984,3.624,7.085,13.781,1.133,22.23.043c2.439-.315,3.177-1.285,2.976-2.566C206.973,724.489,206.1,725.087,204.285,725.321Z" data-name="Path 112" opacity=".2" transform="translate(-56 -106.019)"/><path id="Path_113" d="M439.7,707.337c0,30.22-42.124,20.873-93.7,20.873s-93.074,9.347-93.074-20.873,42.118-36.793,93.694-36.793S439.7,677.117,439.7,707.337Z" data-name="Path 113" opacity=".1" transform="translate(-56 -106.019)"/><path id="Path_114" fill="#3f3d56" d="M439.7,699.9c0,30.22-42.124,20.873-93.7,20.873s-93.074,9.347-93.074-20.873S295.04,663.1,346.616,663.1,439.7,669.676,439.7,699.9Z" data-name="Path 114" transform="translate(-56 -106.019)"/></g><g id="docusaurus_keytar" transform="translate(312.271 493.733)"><path id="Path_40" fill="#fff" fill-rule="evenodd" d="M99,52h91.791V89.153H99Z" data-name="Path 40" transform="translate(5.904 -14.001)"/><path id="Path_41" fill="#3ecc5f" fill-rule="evenodd" d="M24.855,163.927A21.828,21.828,0,0,1,5.947,153a21.829,21.829,0,0,0,18.908,32.782H46.71V163.927Z" data-name="Path 41" transform="translate(-3 -4.634)"/><path id="Path_42" fill="#3ecc5f" fill-rule="evenodd" d="M121.861,61.1l76.514-4.782V45.39A21.854,21.854,0,0,0,176.52,23.535H78.173L75.441,18.8a3.154,3.154,0,0,0-5.464,0l-2.732,4.732L64.513,18.8a3.154,3.154,0,0,0-5.464,0l-2.732,4.732L53.586,18.8a3.154,3.154,0,0,0-5.464,0L45.39,23.535c-.024,0-.046,0-.071,0l-4.526-4.525a3.153,3.153,0,0,0-5.276,1.414l-1.5,5.577-5.674-1.521a3.154,3.154,0,0,0-3.863,3.864L26,34.023l-5.575,1.494a3.155,3.155,0,0,0-1.416,5.278l4.526,4.526c0,.023,0,.046,0,.07L18.8,48.122a3.154,3.154,0,0,0,0,5.464l4.732,2.732L18.8,59.05a3.154,3.154,0,0,0,0,5.464l4.732,2.732L18.8,69.977a3.154,3.154,0,0,0,0,5.464l4.732,2.732L18.8,80.9a3.154,3.154,0,0,0,0,5.464L23.535,89.1,18.8,91.832a3.154,3.154,0,0,0,0,5.464l4.732,2.732L18.8,102.76a3.154,3.154,0,0,0,0,5.464l4.732,2.732L18.8,113.687a3.154,3.154,0,0,0,0,5.464l4.732,2.732L18.8,124.615a3.154,3.154,0,0,0,0,5.464l4.732,2.732L18.8,135.542a3.154,3.154,0,0,0,0,5.464l4.732,2.732L18.8,146.469a3.154,3.154,0,0,0,0,5.464l4.732,2.732L18.8,157.4a3.154,3.154,0,0,0,0,5.464l4.732,2.732L18.8,168.324a3.154,3.154,0,0,0,0,5.464l4.732,2.732A21.854,21.854,0,0,0,45.39,198.375H176.52a21.854,21.854,0,0,0,21.855-21.855V89.1l-76.514-4.782a11.632,11.632,0,0,1,0-23.219" data-name="Path 42" transform="translate(-1.681 -17.226)"/><path id="Path_43" fill="#3ecc5f" fill-rule="evenodd" d="M143,186.71h32.782V143H143Z" data-name="Path 43" transform="translate(9.984 -5.561)"/><path id="Path_44" fill="#44d860" fill-rule="evenodd" d="M196.71,159.855a5.438,5.438,0,0,0-.7.07c-.042-.164-.081-.329-.127-.493a5.457,5.457,0,1,0-5.4-9.372q-.181-.185-.366-.367a5.454,5.454,0,1,0-9.384-5.4c-.162-.046-.325-.084-.486-.126a5.467,5.467,0,1,0-10.788,0c-.162.042-.325.08-.486.126a5.457,5.457,0,1,0-9.384,5.4,21.843,21.843,0,1,0,36.421,21.02,5.452,5.452,0,1,0,.7-10.858" data-name="Path 44" transform="translate(10.912 -6.025)"/><path id="Path_45" fill="#3ecc5f" fill-rule="evenodd" d="M153,124.855h32.782V103H153Z" data-name="Path 45" transform="translate(10.912 -9.271)"/><path id="Path_46" fill="#44d860" fill-rule="evenodd" d="M194.855,116.765a2.732,2.732,0,1,0,0-5.464,2.811,2.811,0,0,0-.349.035c-.022-.082-.04-.164-.063-.246a2.733,2.733,0,0,0-1.052-5.253,2.7,2.7,0,0,0-1.648.566q-.09-.093-.184-.184a2.7,2.7,0,0,0,.553-1.633,2.732,2.732,0,0,0-5.245-1.07,10.928,10.928,0,1,0,0,21.031,2.732,2.732,0,0,0,5.245-1.07,2.7,2.7,0,0,0-.553-1.633q.093-.09.184-.184a2.7,2.7,0,0,0,1.648.566,2.732,2.732,0,0,0,1.052-5.253c.023-.081.042-.164.063-.246a2.814,2.814,0,0,0,.349.035" data-name="Path 46" transform="translate(12.767 -9.377)"/><path id="Path_47" fill-rule="evenodd" d="M65.087,56.891a2.732,2.732,0,0,1-2.732-2.732,8.2,8.2,0,0,0-16.391,0,2.732,2.732,0,0,1-5.464,0,13.659,13.659,0,0,1,27.319,0,2.732,2.732,0,0,1-2.732,2.732" data-name="Path 47" transform="translate(0.478 -15.068)"/><path id="Path_48" fill="#ffff50" fill-rule="evenodd" d="M103,191.347h65.565a21.854,21.854,0,0,0,21.855-21.855V93H124.855A21.854,21.854,0,0,0,103,114.855Z" data-name="Path 48" transform="translate(6.275 -10.199)"/><path id="Path_49" fill-rule="evenodd" d="M173.216,129.787H118.535a1.093,1.093,0,1,1,0-2.185h54.681a1.093,1.093,0,0,1,0,2.185m0,21.855H118.535a1.093,1.093,0,1,1,0-2.186h54.681a1.093,1.093,0,0,1,0,2.186m0,21.855H118.535a1.093,1.093,0,1,1,0-2.185h54.681a1.093,1.093,0,0,1,0,2.185m0-54.434H118.535a1.093,1.093,0,1,1,0-2.185h54.681a1.093,1.093,0,0,1,0,2.185m0,21.652H118.535a1.093,1.093,0,1,1,0-2.186h54.681a1.093,1.093,0,0,1,0,2.186m0,21.855H118.535a1.093,1.093,0,1,1,0-2.186h54.681a1.093,1.093,0,0,1,0,2.186M189.585,61.611c-.013,0-.024-.007-.037-.005-3.377.115-4.974,3.492-6.384,6.472-1.471,3.114-2.608,5.139-4.473,5.078-2.064-.074-3.244-2.406-4.494-4.874-1.436-2.835-3.075-6.049-6.516-5.929-3.329.114-4.932,3.053-6.346,5.646-1.5,2.762-2.529,4.442-4.5,4.364-2.106-.076-3.225-1.972-4.52-4.167-1.444-2.443-3.112-5.191-6.487-5.1-3.272.113-4.879,2.606-6.3,4.808-1.5,2.328-2.552,3.746-4.551,3.662-2.156-.076-3.27-1.65-4.558-3.472-1.447-2.047-3.077-4.363-6.442-4.251-3.2.109-4.807,2.153-6.224,3.954-1.346,1.709-2.4,3.062-4.621,2.977a1.093,1.093,0,0,0-.079,2.186c3.3.11,4.967-1.967,6.417-3.81,1.286-1.635,2.4-3.045,4.582-3.12,2.1-.09,3.091,1.218,4.584,3.327,1.417,2,3.026,4.277,6.263,4.394,3.391.114,5.022-2.42,6.467-4.663,1.292-2,2.406-3.734,4.535-3.807,1.959-.073,3.026,1.475,4.529,4.022,1.417,2.4,3.023,5.121,6.324,5.241,3.415.118,5.064-2.863,6.5-5.5,1.245-2.282,2.419-4.437,4.5-4.509,1.959-.046,2.981,1.743,4.492,4.732,1.412,2.79,3.013,5.95,6.365,6.071l.185,0c3.348,0,4.937-3.36,6.343-6.331,1.245-2.634,2.423-5.114,4.444-5.216Z" data-name="Path 49" transform="translate(7.109 -13.11)"/><path id="Path_50" fill="#3ecc5f" fill-rule="evenodd" d="M83,186.71h43.71V143H83Z" data-name="Path 50" transform="translate(4.42 -5.561)"/><g id="Group_8" data-name="Group 8" transform="matrix(0.966, -0.259, 0.259, 0.966, 109.327, 91.085)"><rect id="Rectangle_3" width="92.361" height="36.462" fill="#d8d8d8" data-name="Rectangle 3" rx="2" transform="translate(0 0)"/><g id="Group_2" data-name="Group 2" transform="translate(1.531 23.03)"><rect id="Rectangle_4" width="5.336" height="5.336" fill="#4a4a4a" data-name="Rectangle 4" rx="1" transform="translate(16.797 0)"/><rect id="Rectangle_5" width="5.336" height="5.336" fill="#4a4a4a" data-name="Rectangle 5" rx="1" transform="translate(23.12 0)"/><rect id="Rectangle_6" width="5.336" height="5.336" fill="#4a4a4a" data-name="Rectangle 6" rx="1" transform="translate(29.444 0)"/><rect id="Rectangle_7" width="5.336" height="5.336" fill="#4a4a4a" data-name="Rectangle 7" rx="1" transform="translate(35.768 0)"/><rect id="Rectangle_8" width="5.336" height="5.336" fill="#4a4a4a" data-name="Rectangle 8" rx="1" transform="translate(42.091 0)"/><rect id="Rectangle_9" width="5.336" height="5.336" fill="#4a4a4a" data-name="Rectangle 9" rx="1" transform="translate(48.415 0)"/><rect id="Rectangle_10" width="5.336" height="5.336" fill="#4a4a4a" data-name="Rectangle 10" rx="1" transform="translate(54.739 0)"/><rect id="Rectangle_11" width="5.336" height="5.336" fill="#4a4a4a" data-name="Rectangle 11" rx="1" transform="translate(61.063 0)"/><rect id="Rectangle_12" width="5.336" height="5.336" fill="#4a4a4a" data-name="Rectangle 12" rx="1" transform="translate(67.386 0)"/><path id="Path_51" fill="#4a4a4a" fill-rule="evenodd" d="M1.093,0H14.518a1.093,1.093,0,0,1,1.093,1.093V4.243a1.093,1.093,0,0,1-1.093,1.093H1.093A1.093,1.093,0,0,1,0,4.243V1.093A1.093,1.093,0,0,1,1.093,0ZM75,0H88.426a1.093,1.093,0,0,1,1.093,1.093V4.243a1.093,1.093,0,0,1-1.093,1.093H75a1.093,1.093,0,0,1-1.093-1.093V1.093A1.093,1.093,0,0,1,75,0Z" data-name="Path 51" transform="translate(0 0)"/></g><g id="Group_3" data-name="Group 3" transform="translate(1.531 10.261)"><path id="Path_52" fill="#4a4a4a" fill-rule="evenodd" d="M1.093,0H6.218A1.093,1.093,0,0,1,7.31,1.093V4.242A1.093,1.093,0,0,1,6.218,5.335H1.093A1.093,1.093,0,0,1,0,4.242V1.093A1.093,1.093,0,0,1,1.093,0Z" data-name="Path 52" transform="translate(0 0)"/><rect id="Rectangle_13" width="5.336" height="5.336" fill="#4a4a4a" data-name="Rectangle 13" rx="1" transform="translate(8.299 0)"/><rect id="Rectangle_14" width="5.336" height="5.336" fill="#4a4a4a" data-name="Rectangle 14" rx="1" transform="translate(14.623 0)"/><rect id="Rectangle_15" width="5.336" height="5.336" fill="#4a4a4a" data-name="Rectangle 15" rx="1" transform="translate(20.947 0)"/><rect id="Rectangle_16" width="5.336" height="5.336" fill="#4a4a4a" data-name="Rectangle 16" rx="1" transform="translate(27.271 0)"/><rect id="Rectangle_17" width="5.336" height="5.336" fill="#4a4a4a" data-name="Rectangle 17" rx="1" transform="translate(33.594 0)"/><rect id="Rectangle_18" width="5.336" height="5.336" fill="#4a4a4a" data-name="Rectangle 18" rx="1" transform="translate(39.918 0)"/><rect id="Rectangle_19" width="5.336" height="5.336" fill="#4a4a4a" data-name="Rectangle 19" rx="1" transform="translate(46.242 0)"/><rect id="Rectangle_20" width="5.336" height="5.336" fill="#4a4a4a" data-name="Rectangle 20" rx="1" transform="translate(52.565 0)"/><rect id="Rectangle_21" width="5.336" height="5.336" fill="#4a4a4a" data-name="Rectangle 21" rx="1" transform="translate(58.888 0)"/><rect id="Rectangle_22" width="5.336" height="5.336" fill="#4a4a4a" data-name="Rectangle 22" rx="1" transform="translate(65.212 0)"/><rect id="Rectangle_23" width="5.336" height="5.336" fill="#4a4a4a" data-name="Rectangle 23" rx="1" transform="translate(71.536 0)"/><rect id="Rectangle_24" width="5.336" height="5.336" fill="#4a4a4a" data-name="Rectangle 24" rx="1" transform="translate(77.859 0)"/><rect id="Rectangle_25" width="5.336" height="5.336" fill="#4a4a4a" data-name="Rectangle 25" rx="1" transform="translate(84.183 0)"/></g><g id="Group_4" data-name="Group 4" transform="translate(91.05 9.546) rotate(180)"><path id="Path_53" fill="#4a4a4a" fill-rule="evenodd" d="M1.093,0H6.219A1.093,1.093,0,0,1,7.312,1.093v3.15A1.093,1.093,0,0,1,6.219,5.336H1.093A1.093,1.093,0,0,1,0,4.243V1.093A1.093,1.093,0,0,1,1.093,0Z" data-name="Path 53" transform="translate(0 0)"/><rect id="Rectangle_26" width="5.336" height="5.336" fill="#4a4a4a" data-name="Rectangle 26" rx="1" transform="translate(8.299 0)"/><rect id="Rectangle_27" width="5.336" height="5.336" fill="#4a4a4a" data-name="Rectangle 27" rx="1" transform="translate(14.623 0)"/><rect id="Rectangle_28" width="5.336" height="5.336" fill="#4a4a4a" data-name="Rectangle 28" rx="1" transform="translate(20.947 0)"/><rect id="Rectangle_29" width="5.336" height="5.336" fill="#4a4a4a" data-name="Rectangle 29" rx="1" transform="translate(27.271 0)"/><rect id="Rectangle_30" width="5.336" height="5.336" fill="#4a4a4a" data-name="Rectangle 30" rx="1" transform="translate(33.594 0)"/><rect id="Rectangle_31" width="5.336" height="5.336" fill="#4a4a4a" data-name="Rectangle 31" rx="1" transform="translate(39.918 0)"/><rect id="Rectangle_32" width="5.336" height="5.336" fill="#4a4a4a" data-name="Rectangle 32" rx="1" transform="translate(46.242 0)"/><rect id="Rectangle_33" width="5.336" height="5.336" fill="#4a4a4a" data-name="Rectangle 33" rx="1" transform="translate(52.565 0)"/><rect id="Rectangle_34" width="5.336" height="5.336" fill="#4a4a4a" data-name="Rectangle 34" rx="1" transform="translate(58.889 0)"/><rect id="Rectangle_35" width="5.336" height="5.336" fill="#4a4a4a" data-name="Rectangle 35" rx="1" transform="translate(65.213 0)"/><rect id="Rectangle_36" width="5.336" height="5.336" fill="#4a4a4a" data-name="Rectangle 36" rx="1" transform="translate(71.537 0)"/><rect id="Rectangle_37" width="5.336" height="5.336" fill="#4a4a4a" data-name="Rectangle 37" rx="1" transform="translate(77.86 0)"/><rect id="Rectangle_38" width="5.336" height="5.336" fill="#4a4a4a" data-name="Rectangle 38" rx="1" transform="translate(84.183 0)"/><rect id="Rectangle_39" width="5.336" height="5.336" fill="#4a4a4a" data-name="Rectangle 39" rx="1" transform="translate(8.299 0)"/><rect id="Rectangle_40" width="5.336" height="5.336" fill="#4a4a4a" data-name="Rectangle 40" rx="1" transform="translate(14.623 0)"/><rect id="Rectangle_41" width="5.336" height="5.336" fill="#4a4a4a" data-name="Rectangle 41" rx="1" transform="translate(20.947 0)"/><rect id="Rectangle_42" width="5.336" height="5.336" fill="#4a4a4a" data-name="Rectangle 42" rx="1" transform="translate(27.271 0)"/><rect id="Rectangle_43" width="5.336" height="5.336" fill="#4a4a4a" data-name="Rectangle 43" rx="1" transform="translate(33.594 0)"/><rect id="Rectangle_44" width="5.336" height="5.336" fill="#4a4a4a" data-name="Rectangle 44" rx="1" transform="translate(39.918 0)"/><rect id="Rectangle_45" width="5.336" height="5.336" fill="#4a4a4a" data-name="Rectangle 45" rx="1" transform="translate(46.242 0)"/><rect id="Rectangle_46" width="5.336" height="5.336" fill="#4a4a4a" data-name="Rectangle 46" rx="1" transform="translate(52.565 0)"/><rect id="Rectangle_47" width="5.336" height="5.336" fill="#4a4a4a" data-name="Rectangle 47" rx="1" transform="translate(58.889 0)"/><rect id="Rectangle_48" width="5.336" height="5.336" fill="#4a4a4a" data-name="Rectangle 48" rx="1" transform="translate(65.213 0)"/><rect id="Rectangle_49" width="5.336" height="5.336" fill="#4a4a4a" data-name="Rectangle 49" rx="1" transform="translate(71.537 0)"/><rect id="Rectangle_50" width="5.336" height="5.336" fill="#4a4a4a" data-name="Rectangle 50" rx="1" transform="translate(77.86 0)"/><rect id="Rectangle_51" width="5.336" height="5.336" fill="#4a4a4a" data-name="Rectangle 51" rx="1" transform="translate(84.183 0)"/></g><g id="Group_6" data-name="Group 6" transform="translate(1.531 16.584)"><path id="Path_54" fill="#4a4a4a" fill-rule="evenodd" d="M1.093,0h7.3A1.093,1.093,0,0,1,9.485,1.093v3.15A1.093,1.093,0,0,1,8.392,5.336h-7.3A1.093,1.093,0,0,1,0,4.243V1.094A1.093,1.093,0,0,1,1.093,0Z" data-name="Path 54" transform="translate(0 0)"/><g id="Group_5" data-name="Group 5" transform="translate(10.671 0)"><rect id="Rectangle_52" width="5.336" height="5.336" fill="#4a4a4a" data-name="Rectangle 52" rx="1"/><rect id="Rectangle_53" width="5.336" height="5.336" fill="#4a4a4a" data-name="Rectangle 53" rx="1" transform="translate(6.324 0)"/><rect id="Rectangle_54" width="5.336" height="5.336" fill="#4a4a4a" data-name="Rectangle 54" rx="1" transform="translate(12.647 0)"/><rect id="Rectangle_55" width="5.336" height="5.336" fill="#4a4a4a" data-name="Rectangle 55" rx="1" transform="translate(18.971 0)"/><rect id="Rectangle_56" width="5.336" height="5.336" fill="#4a4a4a" data-name="Rectangle 56" rx="1" transform="translate(25.295 0)"/><rect id="Rectangle_57" width="5.336" height="5.336" fill="#4a4a4a" data-name="Rectangle 57" rx="1" transform="translate(31.619 0)"/><rect id="Rectangle_58" width="5.336" height="5.336" fill="#4a4a4a" data-name="Rectangle 58" rx="1" transform="translate(37.942 0)"/><rect id="Rectangle_59" width="5.336" height="5.336" fill="#4a4a4a" data-name="Rectangle 59" rx="1" transform="translate(44.265 0)"/><rect id="Rectangle_60" width="5.336" height="5.336" fill="#4a4a4a" data-name="Rectangle 60" rx="1" transform="translate(50.589 0)"/><rect id="Rectangle_61" width="5.336" height="5.336" fill="#4a4a4a" data-name="Rectangle 61" rx="1" transform="translate(56.912 0)"/><rect id="Rectangle_62" width="5.336" height="5.336" fill="#4a4a4a" data-name="Rectangle 62" rx="1" transform="translate(63.236 0)"/></g><path id="Path_55" fill="#4a4a4a" fill-rule="evenodd" d="M1.094,0H8A1.093,1.093,0,0,1,9.091,1.093v3.15A1.093,1.093,0,0,1,8,5.336H1.093A1.093,1.093,0,0,1,0,4.243V1.094A1.093,1.093,0,0,1,1.093,0Z" data-name="Path 55" transform="translate(80.428 0)"/></g><g id="Group_7" data-name="Group 7" transform="translate(1.531 29.627)"><rect id="Rectangle_63" width="5.336" height="5.336" fill="#4a4a4a" data-name="Rectangle 63" rx="1" transform="translate(0 0)"/><rect id="Rectangle_64" width="5.336" height="5.336" fill="#4a4a4a" data-name="Rectangle 64" rx="1" transform="translate(6.324 0)"/><rect id="Rectangle_65" width="5.336" height="5.336" fill="#4a4a4a" data-name="Rectangle 65" rx="1" transform="translate(12.647 0)"/><rect id="Rectangle_66" width="5.336" height="5.336" fill="#4a4a4a" data-name="Rectangle 66" rx="1" transform="translate(18.971 0)"/><path id="Path_56" fill="#4a4a4a" fill-rule="evenodd" d="M1.093,0H31.515a1.093,1.093,0,0,1,1.093,1.093V4.244a1.093,1.093,0,0,1-1.093,1.093H1.093A1.093,1.093,0,0,1,0,4.244V1.093A1.093,1.093,0,0,1,1.093,0ZM34.687,0h3.942a1.093,1.093,0,0,1,1.093,1.093V4.244a1.093,1.093,0,0,1-1.093,1.093H34.687a1.093,1.093,0,0,1-1.093-1.093V1.093A1.093,1.093,0,0,1,34.687,0Z" data-name="Path 56" transform="translate(25.294 0)"/><rect id="Rectangle_67" width="5.336" height="5.336" fill="#4a4a4a" data-name="Rectangle 67" rx="1" transform="translate(66.003 0)"/><rect id="Rectangle_68" width="5.336" height="5.336" fill="#4a4a4a" data-name="Rectangle 68" rx="1" transform="translate(72.327 0)"/><rect id="Rectangle_69" width="5.336" height="5.336" fill="#4a4a4a" data-name="Rectangle 69" rx="1" transform="translate(84.183 0)"/><path id="Path_57" fill="#4a4a4a" d="M5.336,0V1.18A1.093,1.093,0,0,1,4.243,2.273H1.093A1.093,1.093,0,0,1,0,1.18V0Z" data-name="Path 57" transform="translate(83.59 2.273) rotate(180)"/><path id="Path_58" fill="#4a4a4a" d="M5.336,0V1.18A1.093,1.093,0,0,1,4.243,2.273H1.093A1.093,1.093,0,0,1,0,1.18V0Z" data-name="Path 58" transform="translate(78.255 3.063)"/></g><rect id="Rectangle_70" width="88.927" height="2.371" fill="#4a4a4a" data-name="Rectangle 70" rx="1.085" transform="translate(1.925 1.17)"/><rect id="Rectangle_71" width="4.986" height="1.581" fill="#d8d8d8" data-name="Rectangle 71" opacity=".136" rx=".723" transform="translate(4.1 1.566)"/><rect id="Rectangle_72" width="4.986" height="1.581" fill="#d8d8d8" data-name="Rectangle 72" opacity=".136" rx=".723" transform="translate(10.923 1.566)"/><rect id="Rectangle_73" width="4.986" height="1.581" fill="#d8d8d8" data-name="Rectangle 73" opacity=".136" rx=".723" transform="translate(16.173 1.566)"/><rect id="Rectangle_74" width="4.986" height="1.581" fill="#d8d8d8" data-name="Rectangle 74" opacity=".136" rx=".723" transform="translate(21.421 1.566)"/><rect id="Rectangle_75" width="4.986" height="1.581" fill="#d8d8d8" data-name="Rectangle 75" opacity=".136" rx=".723" transform="translate(26.671 1.566)"/><rect id="Rectangle_76" width="4.986" height="1.581" fill="#d8d8d8" data-name="Rectangle 76" opacity=".136" rx=".723" transform="translate(33.232 1.566)"/><rect id="Rectangle_77" width="4.986" height="1.581" fill="#d8d8d8" data-name="Rectangle 77" opacity=".136" rx=".723" transform="translate(38.48 1.566)"/><rect id="Rectangle_78" width="4.986" height="1.581" fill="#d8d8d8" data-name="Rectangle 78" opacity=".136" rx=".723" transform="translate(43.73 1.566)"/><rect id="Rectangle_79" width="4.986" height="1.581" fill="#d8d8d8" data-name="Rectangle 79" opacity=".136" rx=".723" transform="translate(48.978 1.566)"/><rect id="Rectangle_80" width="4.986" height="1.581" fill="#d8d8d8" data-name="Rectangle 80" opacity=".136" rx=".723" transform="translate(55.54 1.566)"/><rect id="Rectangle_81" width="4.986" height="1.581" fill="#d8d8d8" data-name="Rectangle 81" opacity=".136" rx=".723" transform="translate(60.788 1.566)"/><rect id="Rectangle_82" width="4.986" height="1.581" fill="#d8d8d8" data-name="Rectangle 82" opacity=".136" rx=".723" transform="translate(66.038 1.566)"/><rect id="Rectangle_83" width="4.986" height="1.581" fill="#d8d8d8" data-name="Rectangle 83" opacity=".136" rx=".723" transform="translate(72.599 1.566)"/><rect id="Rectangle_84" width="4.986" height="1.581" fill="#d8d8d8" data-name="Rectangle 84" opacity=".136" rx=".723" transform="translate(77.847 1.566)"/><rect id="Rectangle_85" width="4.986" height="1.581" fill="#d8d8d8" data-name="Rectangle 85" opacity=".136" rx=".723" transform="translate(83.097 1.566)"/></g><path id="Path_59" fill="#44d860" fill-rule="evenodd" d="M146.71,159.855a5.439,5.439,0,0,0-.7.07c-.042-.164-.081-.329-.127-.493a5.457,5.457,0,1,0-5.4-9.372q-.181-.185-.366-.367a5.454,5.454,0,1,0-9.384-5.4c-.162-.046-.325-.084-.486-.126a5.467,5.467,0,1,0-10.788,0c-.162.042-.325.08-.486.126a5.457,5.457,0,1,0-9.384,5.4,21.843,21.843,0,1,0,36.421,21.02,5.452,5.452,0,1,0,.7-10.858" data-name="Path 59" transform="translate(6.275 -6.025)"/><path id="Path_60" fill="#3ecc5f" fill-rule="evenodd" d="M83,124.855h43.71V103H83Z" data-name="Path 60" transform="translate(4.42 -9.271)"/><path id="Path_61" fill="#44d860" fill-rule="evenodd" d="M134.855,116.765a2.732,2.732,0,1,0,0-5.464,2.811,2.811,0,0,0-.349.035c-.022-.082-.04-.164-.063-.246a2.733,2.733,0,0,0-1.052-5.253,2.7,2.7,0,0,0-1.648.566q-.09-.093-.184-.184a2.7,2.7,0,0,0,.553-1.633,2.732,2.732,0,0,0-5.245-1.07,10.928,10.928,0,1,0,0,21.031,2.732,2.732,0,0,0,5.245-1.07,2.7,2.7,0,0,0-.553-1.633q.093-.09.184-.184a2.7,2.7,0,0,0,1.648.566,2.732,2.732,0,0,0,1.052-5.253c.023-.081.042-.164.063-.246a2.811,2.811,0,0,0,.349.035" data-name="Path 61" transform="translate(7.202 -9.377)"/><path id="Path_62" fill-rule="evenodd" d="M143.232,42.33a2.967,2.967,0,0,1-.535-.055,2.754,2.754,0,0,1-.514-.153,2.838,2.838,0,0,1-.471-.251,4.139,4.139,0,0,1-.415-.339,3.2,3.2,0,0,1-.338-.415A2.7,2.7,0,0,1,140.5,39.6a2.968,2.968,0,0,1,.055-.535,3.152,3.152,0,0,1,.152-.514,2.874,2.874,0,0,1,.252-.47,2.633,2.633,0,0,1,.753-.754,2.837,2.837,0,0,1,.471-.251,2.753,2.753,0,0,1,.514-.153,2.527,2.527,0,0,1,1.071,0,2.654,2.654,0,0,1,.983.4,4.139,4.139,0,0,1,.415.339,4.019,4.019,0,0,1,.339.415,2.786,2.786,0,0,1,.251.47,2.864,2.864,0,0,1,.208,1.049,2.77,2.77,0,0,1-.8,1.934,4.139,4.139,0,0,1-.415.339,2.722,2.722,0,0,1-1.519.459m21.855-1.366a2.789,2.789,0,0,1-1.935-.8,4.162,4.162,0,0,1-.338-.415,2.7,2.7,0,0,1-.459-1.519,2.789,2.789,0,0,1,.8-1.934,4.139,4.139,0,0,1,.415-.339,2.838,2.838,0,0,1,.471-.251,2.752,2.752,0,0,1,.514-.153,2.527,2.527,0,0,1,1.071,0,2.654,2.654,0,0,1,.983.4,4.139,4.139,0,0,1,.415.339,2.79,2.79,0,0,1,.8,1.934,3.069,3.069,0,0,1-.055.535,2.779,2.779,0,0,1-.153.514,3.885,3.885,0,0,1-.251.47,4.02,4.02,0,0,1-.339.415,4.138,4.138,0,0,1-.415.339,2.722,2.722,0,0,1-1.519.459" data-name="Path 62" transform="translate(9.753 -15.532)"/></g></g></svg>