<svg height="256pt" preserveAspectRatio="xMidYMid meet" viewBox="0 0 256 256" width="256pt" xmlns="http://www.w3.org/2000/svg"><path d="m0 1280v-1280h1280 1280v1280 1280h-1280-1280zm1430 786c-1-17-6-41-13-53-19-34-97-98-157-128-65-33-79-49-80-92 0-35 8-41 28-21 9 9 12 7 12-10 0-35 45-57 113-56 45 1 63 6 79 22 21 21 21 22 4 80-24 78-12 107 61 142 29 14 60 33 69 42 23 22 22 73-1 98-27 29-3 24 25-5 28-30 31-81 6-117-9-13-37-34-63-48-62-33-73-63-49-130 10-27 15-57 12-68-3-10-26-28-51-40-74-36-70-68 13-103 100-43 140-11 108 86-24 69-16 98 34 131 42 28 54 66 28 93-11 10-10 11 4 6 9-4 22-20 28-36 16-38 51-39 80-1 18 22 21 36 17 76-4 45-3 47 9 25 19-35 17-93-4-119-10-13-52-39-93-59-71-35-74-37-74-71 0-31 3-35 26-33 22 1 25-2 21-26-3-19 1-30 12-34 19-8 46 28 46 63 0 14 5 32 10 40 14 21 13-43-1-92-8-32-22-46-87-88-42-27-85-55-95-62s-24-38-31-68-31-93-54-140c-70-144-102-311-67-340 22-19 63 14 94 74 21 41 26 67 31 184 6 110 11 145 28 177 27 52 85 107 147 138 76 38 89 57 93 138 4 62 7 72 34 97 17 15 39 35 49 45 13 11 19 32 20 60l1 42 14-32c19-44 3-84-47-117l-39-26v-83c-1-52-6-91-15-107-21-37-19-68 6-75 37-12 72 24 91 96 19 71 69 129 110 129h23l-25-20c-14-11-28-20-31-20-16 0-41-56-49-108-7-44-16-63-40-84-28-26-36-28-121-28-112 0-143-14-171-77-20-45-20-47-2-60 29-21 56-16 120 23 109 67 111 68 167 55 42-9 54-9 73 4 36 23 43 69 19 130-7 16-6 18 6 8 7-7 18-13 24-13 15 0 36 67 28 88-6 15-4 15 14-1 17-15 26-16 41-8 11 6 23 16 25 23 3 8 6 6 6-4 1-11-14-25-38-37-37-19-38-22-50-95-7-45-20-85-32-100-19-24-27-26-99-26-77 0-80-1-125-40-25-21-64-45-87-52-78-23-141-109-106-145 13-13 19-13 50 0 19 8 56 31 82 51 42 32 54 36 107 36s63 3 85 27c13 16 37 43 53 61 30 33 70 42 101 22 11-7 7-10-18-10-49 0-72-16-72-49 0-63 76-85 120-34 26 32 60 53 82 53 7-1 1-7-13-15s-38-32-52-54c-15-22-38-43-51-47-25-6-74 14-95 40-18 21-26 20-61-5-17-13-51-24-86-28-70-7-79-24-37-70 43-46 69-48 133-6 30 19 60 35 68 35 22 0 55-20 94-58 26-25 46-35 68-35 20 0 27-4 21-10-20-20-67-10-120 26-29 21-59 37-65 37s-36-16-66-35-63-35-72-35c-10 0-41 11-68 25-68 34-120 33-162-3-22-20-29-34-25-46 6-15 15-16 64-10 48 6 62 3 98-16l41-23 43 29c64 42 102 37 160-20 25-25 57-49 71-55 24-9 24-10-8-10-25-1-43 9-76 39-24 22-53 40-66 40-29 0-117-48-125-68-10-25 33-61 84-68l46-7-35-10c-48-12-105 6-127 41-36 58-55 72-97 72-98 0-173-101-133-180 17-34 74-70 111-70 17 0 60-14 96-31s89-37 119-45c30-7 56-16 59-19 12-11-106-3-143 10-49 18-48 18-39 4 5-9-3-10-29-5-32 6-36 5-30-11 5-15 3-15-18 3-13 12-34 27-46 33-22 11-22 10-17-21l5-33-16 27c-8 15-24 32-35 38-17 9-18 7-14-27l5-38-20 36c-11 19-27 41-35 48-14 12-16 10-16-7 0-11 5-33 10-48 15-38 5-41-16-5-19 33-33 32-35-2-1-12-5-4-10 18-21 95-20 94-35 40-8-27-11-63-8-80 4-23 3-26-5-15-6 8-11 61-11 117 0 66-4 104-12 109-6 4-9 3-5-2 3-5 2-41-3-81-5-51-14-80-30-100-20-25-22-26-16-5 3 12 9 32 12 45l6 22-17-23c-9-13-21-35-26-50-8-23-8-21-5 13 3 22 8 58 11 80l6 40-25-50c-13-27-36-63-51-80-24-27-26-28-22-7 7 29-4 28-37-3-37-34-33-8 7 40l32 40-37-23c-35-22-188-75-195-68s32 32 76 48c45 16 45 16 13 17-18 1-51-8-73-20-38-19-192-41-177-25 3 4 32 14 65 22 32 9 75 27 96 40 21 14 64 29 94 34 69 12 101 32 119 76 35 83-43 175-149 178-33 1-43-5-68-34-55-68-68-79-93-86-34-8-68 1-97 26-22 20-23 20-2 11 40-20 88-13 117 15 38 39 35 71-11 91-64 26-98 22-141-19-43-43-90-64-106-48-7 7-4 10 10 10 26 1 57 27 88 77 31 51 64 63 112 39 19-9 44-16 55-16 16 0 18 4 13 28l-7 27 19-22c20-22 167-68 185-58 27 17-7 63-86 113-48 31-105 33-155 7-26-15-53-19-109-17-67 2-79-1-121-28-47-30-93-39-105-20-3 6 4 10 18 10 13 0 44 15 68 33 38 28 54 33 119 37 68 5 75 7 78 28 5 32-21 38-82 18-100-31-123-22-165 61-11 23-31 49-43 57-21 15-21 16-3 16 29 0 43-12 78-66 38-58 60-64 127-35 61 26 76 26 124 0 45-24 99-22 104 3 2 10-8 29-23 44-25 25-29 25-100 19-74-7-75-7-110 24-20 17-42 31-49 31s-25 9-40 21c-28 22-36 72-14 85 7 4 8 3 4-5-16-26 7-52 79-87 76-37 80-37 171-19 45 10 79-12 116-75 36-59 90-103 123-98 31 5 27 84-8 137-41 62-94 85-197 87-116 1-128 6-155 69-27 60-45 70-110 61-37-6-47-3-71 19s-25 24-6 15c14-7 47-9 91-4 66 6 68 5 89-21 12-15 22-33 22-40s9-24 21-39c17-21 29-26 65-26 40 0 44 2 44 25 0 15-9 31-25 41-28 18-33 34-10 34 8 0 15-6 15-12 0-21 64-58 135-80 78-23 148-80 176-143 10-22 21-74 24-115 9-95 35-157 69-166 41-10 49 2 43 70-8 87-51 213-91 267-27 37-55 57-135 98-56 29-116 65-134 80-44 39-84 57-141 66-49 7-53 10-127 93-16 19-28 23-60 20-46-4-50 5-9 22 42 18 73 6 134-49 54-49 116-78 137-65 6 3 9 19 5 35-8 41 0 36 23-15 31-70 85-74 83-5-1 42-34 75-88 88-94 24-140 111-99 190 20 39 30 36 15-5-6-16-9-43-5-61 7-38 56-83 91-83 38 0 100-29 113-53 6-12 15-46 21-74 13-71 33-98 93-127 77-36 113-42 126-19 14 27-6 62-49 90-72 46-82 56-104 106-13 29-44 79-69 112-25 32-49 71-52 84-4 14-24 45-46 68-30 32-39 51-39 77 0 19 5 38 12 42 8 5 9 2 5-9-10-27 14-78 47-98l31-19 23 28c18 21 22 22 17 7-19-53-17-69 25-151 59-116 70-123 70-44 0 44-5 70-18 88-39 57-34 94 19 146 33 32 36 52 13 84-8 12-11 22-5 22 15 0 41-42 41-66 0-12-16-41-35-64-38-46-39-59-4-116 13-22 19-50 19-92 0-97 18-119 106-137 66-13 94-71 94-197 0-48 4-80 12-84 16-10 55 38 67 84 28 99-1 171-100 244-111 82-127 98-139 134-25 73 8 138 91 180 68 34 79 60 51 126-29 69-21 72 15 6 15-29 36-54 45-56 43-8 78 82 46 118-7 8-3 6 10-4 14-13 22-30 22-50zm75-26c-5-8-11-8-17-2s-7 16-3 22c5 8 11 8 17 2s7-16 3-22zm-285-21c0-14-5-19-17-17-26 5-29 38-4 38 15 0 21-6 21-21zm-252-47c2-7-3-12-12-12s-16 7-16 16c0 17 22 14 28-4zm707-52c-5-8-11-8-17-2s-7 16-3 22c5 8 11 8 17 2s7-16 3-22zm-798-136c8-21-13-42-28-27-13 13-5 43 11 43 6 0 13-7 17-16zm-220-20c6-16-15-37-29-28-4 3-8 14-8 25 0 23 28 26 37 3zm1313-25c0-25-33-22-38 4-2 12 3 17 17 17 15 0 21-6 21-21zm-110-54c0-8-7-15-15-15s-15 7-15 15 7 15 15 15 15-7 15-15zm-1075-64c7-12-12-24-25-16-11 7-4 25 10 25 5 0 11-4 15-9zm735 0c0-14-18-23-30-16-6 4-8 11-5 16 8 12 35 12 35 0zm-940-66c0-8-7-15-15-15s-15 7-15 15 7 15 15 15 15-7 15-15zm1520-106c0-24-23-21-28 4-2 10 3 17 12 17 10 0 16-9 16-21zm-1621-93c9-10 8-16-4-26-19-16-41 1-32 24 8 20 21 20 36 2zm1627 3c10-17-23-46-37-32-7 7-9 19-6 27 7 18 33 21 43 5zm-1643-274c1-5-6-11-15-13-11-2-18 3-18 13 0 17 30 18 33 0zm1670 0c1-5-6-11-15-13-11-2-18 3-18 13 0 17 30 18 33 0zm-1561-167c-6-6-15-9-18-5-4 3-4 14 0 23 5 13 9 15 18 6s9-15 0-24zm148-214c0-8-7-14-15-14-15 0-21 21-9 33 10 9 24-2 24-19zm1156 15c10-17-13-36-27-22-12 12-4 33 11 33 5 0 12-5 16-11z" transform="matrix(.1 0 0 -.1 0 256)"/></svg>